<svg width="48" height="48" viewBox="0 0 48 48" fill="none" xmlns="http://www.w3.org/2000/svg">
	<path d="M13.5 5C14.6162 5 15.7215 5.21986 16.7528 5.64702C17.7841 6.07419 18.7211 6.70029 19.5104 7.48959C20.2997 8.27889 20.9258 9.21592 21.353 10.2472C21.7801 11.2785 22 12.3838 22 13.5V22H13.5C11.2457 22 9.08366 21.1045 7.4896 19.5104C5.89554 17.9163 5 15.7543 5 13.5C5 11.2457 5.89554 9.08365 7.4896 7.48959C9.08366 5.89553 11.2457 5 13.5 5V5ZM13.5 26H22V34.5C22 36.1811 21.5015 37.8245 20.5675 39.2223C19.6335 40.6202 18.306 41.7096 16.7528 42.353C15.1996 42.9963 13.4906 43.1646 11.8417 42.8367C10.1929 42.5087 8.67834 41.6992 7.4896 40.5104C6.30085 39.3217 5.4913 37.8071 5.16333 36.1583C4.83535 34.5094 5.00368 32.8004 5.64703 31.2472C6.29037 29.694 7.37984 28.3665 8.77766 27.4325C10.1755 26.4985 11.8189 26 13.5 26V26ZM34.5 5C36.7543 5 38.9164 5.89553 40.5104 7.48959C42.1045 9.08365 43 11.2457 43 13.5C43 15.7543 42.1045 17.9163 40.5104 19.5104C38.9164 21.1045 36.7543 22 34.5 22H26V13.5C26 11.2457 26.8955 9.08365 28.4896 7.48959C30.0837 5.89553 32.2457 5 34.5 5V5ZM26 26H34.5C36.1811 26 37.8245 26.4985 39.2224 27.4325C40.6202 28.3665 41.7096 29.694 42.353 31.2472C42.9963 32.8004 43.1647 34.5094 42.8367 36.1583C42.5087 37.8071 41.6992 39.3217 40.5104 40.5104C39.3217 41.6992 37.8071 42.5087 36.1583 42.8367C34.5094 43.1646 32.8004 42.9963 31.2472 42.353C29.694 41.7096 28.3665 40.6202 27.4325 39.2223C26.4985 37.8245 26 36.1811 26 34.5V26Z" fill="#1c2b46"></path>
</svg>