<svg width="48" height="48" viewBox="0 0 48 48" fill="none" xmlns="http://www.w3.org/2000/svg">
    <path d="M24 4C13 4 4 13 4 24C4 35 13 44 24 44C26.8 44 29 41.8 29 39C29 37.8 28.6 36.6 27.8 35.6C27.6 35.4 27.6 35.2 27.6 35C27.6 34.4 28 34 28.6 34H32C38.6 34 44 28.6 44 22C44 12 35 4 24 4ZM35 26C33.4 26 32 24.6 32 23C32 21.4 33.4 20 35 20C36.6 20 38 21.4 38 23C38 24.6 36.6 26 35 26ZM29 18C27.4 18 26 16.6 26 15C26 13.4 27.4 12 29 12C30.6 12 32 13.4 32 15C32 16.6 30.6 18 29 18ZM10 23C10 21.4 11.4 20 13 20C14.6 20 16 21.4 16 23C16 24.6 14.6 26 13 26C11.4 26 10 24.6 10 23ZM22 15C22 16.6 20.6 18 19 18C17.4 18 16 16.6 16 15C16 13.4 17.4 12 19 12C20.6 12 22 13.4 22 15Z" fill="#1c2b46"></path>
</svg>