<svg width="48" height="48" viewBox="0 0 48 48" fill="none" xmlns="http://www.w3.org/2000/svg">
    <path d="M44.0001 13C44.0001 8 40.0001 4 35.0001 4C31.8001 4 29.0001 5.6 27.4001 8.4C25.2001 8 23.0001 8 20.8001 8.4C20.4001 7.6 19.8001 7 19.0001 6.4C15.2001 3 9.40009 3.4 6.20009 7C3.00009 10.8 3.40009 16.6 7.00009 19.8C6.20009 21.8 6.00009 23.8 6.00009 26C6.00009 36 14.0001 44 24.0001 44C34.0001 44 42.0001 36 42.0001 26C42.0001 23.8 41.6001 21.8 41.0001 19.8C42.8001 18 44.0001 15.6 44.0001 13ZM38.2001 16.8L36.2001 18.6L37.2001 21.2L37.4001 21.8C37.8001 23.2 38.0001 24.6 38.0001 26C38.0001 27.6 37.8001 29.2 37.2001 30.8C34.6001 38 26.4001 41.8 19.2001 39.2C12.0001 36.6 8.20009 28.4 10.8001 21.2L11.8001 18.6L9.80009 16.8L9.40009 16.6C9.20009 16.2 9.00009 16 8.80009 15.6C7.20009 13.2 8.00009 10.2 10.4001 8.8C12.8001 7.2 15.8001 8 17.2001 10.4L18.6001 12.8L21.4001 12.2H22.0001C23.6001 12 25.0001 12 26.6001 12.2L29.4001 12.8L30.8001 10.4L31.0001 10.2C32.0001 8.8 33.4001 8 35.0001 8C36.4001 8 37.8001 8.6 38.8001 9.8C40.6001 11.8 40.4001 15 38.2001 16.8Z" fill="#1c2b46"></path>
    <path opacity="0.5" d="M20 26C20 28.2 21.8 30 24 30C26.2 30 28 28.2 28 26H32C32 30.4 28.4 34 24 34C19.6 34 16 30.4 16 26H20Z" fill="#1c2b46"></path>
    <path opacity="0.5" d="M18 23C19.6569 23 21 21.6569 21 20C21 18.3431 19.6569 17 18 17C16.3431 17 15 18.3431 15 20C15 21.6569 16.3431 23 18 23Z" fill="#1c2b46"></path>
    <path opacity="0.5" d="M30.2 23C31.8568 23 33.2 21.6569 33.2 20C33.2 18.3431 31.8568 17 30.2 17C28.5431 17 27.2 18.3431 27.2 20C27.2 21.6569 28.5431 23 30.2 23Z" fill="#1c2b46"></path>
</svg>