<svg xmlns="http://www.w3.org/2000/svg" width="33" height="34" fill="none" viewBox="0 0 33 34"><path fill="#1868B7" d="M7.37811 19.3897C7.77608 18.6601 8.82372 18.6601 9.22169 19.3897L15.8529 31.547C16.2346 32.2467 15.7281 33.0998 14.9311 33.0998H1.66867C0.871659 33.0998 0.36523 32.2467 0.746881 31.547L7.37811 19.3897Z"/><path fill="#2BCDE4" d="M1.2998 2.9999C1.2998 1.8401 2.24001 0.899902 3.39981 0.899902H13.1998C14.3596 0.899902 15.2998 1.8401 15.2998 2.9999V12.7999C15.2998 13.9597 14.3596 14.8999 13.1998 14.8999H3.3998C2.24001 14.8999 1.2998 13.9597 1.2998 12.7999V2.9999Z"/><path fill="#2BCDE4" d="M18.7998 21.1999C18.7998 20.0401 19.74 19.0999 20.8998 19.0999H30.6998C31.8596 19.0999 32.7998 20.0401 32.7998 21.1999V30.9999C32.7998 32.1597 31.8596 33.0999 30.6998 33.0999H20.8998C19.74 33.0999 18.7998 32.1597 18.7998 30.9999V21.1999Z"/><path fill="#1868B7" d="M32.7998 7.8999C32.7998 11.7659 29.6658 14.8999 25.7998 14.8999C21.9338 14.8999 18.7998 11.7659 18.7998 7.8999C18.7998 4.03391 21.9338 0.899902 25.7998 0.899902C29.6658 0.899902 32.7998 4.03391 32.7998 7.8999Z"/></svg>