<svg xmlns="http://www.w3.org/2000/svg" xmlns:xlink="http://www.w3.org/1999/xlink" width="50" height="50" x="0" y="0" version="1.1" viewBox="0 0 40 40" xml:space="preserve" style="enable-background:new 0 0 40 40"><style type="text/css">.st0{fill:#b793ee}.st1{fill:#7952b3}</style><path d="M15.8,33.7c0-1.7,1.6-3.1,3.6-3.1h15.1c2,0,3.6,1.4,3.6,3.1v1.2c0,1.7-1.6,3.1-3.6,3.1H19.4	c-2,0-3.6-1.4-3.6-3.1V33.7z" class="st0"/><path d="M11.6,24.1c0-1.7,1.6-3.1,3.6-3.1h15.1c2,0,3.6,1.4,3.6,3.1v1.2c0,1.7-1.6,3.1-3.6,3.1H15.2	c-2,0-3.6-1.4-3.6-3.1V24.1z" class="st0"/><path d="M15.8,14.6c0-1.7,1.6-3.1,3.6-3.1h15.1c2,0,3.6,1.4,3.6,3.1v1.2c0,1.7-1.6,3.1-3.6,3.1H19.4	c-2,0-3.6-1.4-3.6-3.1V14.6z" class="st0"/><path d="M11.6,5.1c0-1.7,1.6-3.1,3.6-3.1h15.1c2,0,3.6,1.4,3.6,3.1v1.2c0,1.7-1.6,3.1-3.6,3.1H15.2	c-2,0-3.6-1.4-3.6-3.1V5.1z" class="st0"/><path d="M26.4,26.3c0,7-5.7,12.7-12.7,12.7C6.7,39,1,33.3,1,26.3c0-7,5.7-12.7,12.7-12.7C20.7,13.6,26.4,19.3,26.4,26.3	z" class="st1"/><path d="M15.1,20.7h3.5v2.7H12c-0.2,0-0.4,0.1-0.6,0.2c-0.2,0.1-0.2,0.3-0.2,0.5c0,0.2,0.1,0.4,0.2,0.5	c0.2,0.1,0.4,0.2,0.6,0.2h3.4c0.6,0,1.1,0.1,1.6,0.2c0.5,0.2,0.9,0.4,1.3,0.7c0.4,0.3,0.7,0.6,0.9,1c0.2,0.4,0.3,0.8,0.3,1.3	c0,0.5-0.1,0.9-0.3,1.3c-0.2,0.4-0.5,0.8-0.9,1.1C18,30.8,17.5,31,17,31.2c-0.5,0.2-1,0.3-1.6,0.3h-0.3v3.9h-2.8v-3.9H7.9v-2.7h7.5	c0.2,0,0.4-0.1,0.6-0.2c0.2-0.1,0.2-0.3,0.2-0.5c0-0.2-0.1-0.3-0.2-0.4c-0.2-0.1-0.3-0.1-0.6-0.1H12c-0.6,0-1.1-0.1-1.6-0.3	c-0.5-0.2-0.9-0.4-1.3-0.7c-0.4-0.3-0.7-0.7-0.9-1.1C8,25,7.9,24.6,7.9,24.1c0-0.5,0.1-0.9,0.3-1.3c0.2-0.4,0.5-0.8,0.9-1.1	c0.4-0.3,0.8-0.6,1.3-0.7c0.5-0.2,1-0.3,1.6-0.3h0.4v-3.4h2.8V20.7z" class="st0"/></svg>