<svg xmlns="http://www.w3.org/2000/svg" xmlns:xlink="http://www.w3.org/1999/xlink" width="50" height="50"  x="0" y="0" version="1.1" viewBox="0 0 40 40" xml:space="preserve" style="enable-background:new 0 0 40 40"><style type="text/css">.st0{fill-rule:evenodd;clip-rule:evenodd}.st0,.st1{fill:#b793ee}.st2{fill:#7952b3}</style><path d="M3,33c0-1.1,0.7-2,1.6-2h31.8c0.9,0,1.6,0.9,1.6,2c0,1.1-0.7,2-1.6,2H4.6C3.7,35,3,34.1,3,33z" class="st0"/><path d="M11,33c0,2.8-2.2,5-5,5l0,0c-2.8,0-5-2.2-5-5l0,0c0-2.8,2.2-5,5-5l0,0C8.8,28,11,30.2,11,33L11,33z" class="st1"/><path d="M9.3,33c0-1.8-1.5-3.3-3.3-3.3S2.7,31.2,2.7,33s1.5,3.3,3.3,3.3S9.3,34.8,9.3,33z M6,38c2.8,0,5-2.2,5-5	s-2.2-5-5-5s-5,2.2-5,5S3.2,38,6,38z" class="st0"/><path d="M25,33c0,2.8-2.2,5-5,5l0,0c-2.8,0-5-2.2-5-5l0,0c0-2.8,2.2-5,5-5l0,0C22.8,28,25,30.2,25,33L25,33z" class="st1"/><path d="M23.3,33c0-1.8-1.5-3.3-3.3-3.3s-3.3,1.5-3.3,3.3s1.5,3.3,3.3,3.3S23.3,34.8,23.3,33z M20,38c2.8,0,5-2.2,5-5	s-2.2-5-5-5s-5,2.2-5,5S17.2,38,20,38z" class="st0"/><path d="M38,33c0,2.8-2.2,5-5,5l0,0c-2.8,0-5-2.2-5-5l0,0c0-2.8,2.2-5,5-5l0,0C35.8,28,38,30.2,38,33L38,33z" class="st1"/><path d="M36.3,33c0-1.8-1.5-3.3-3.3-3.3s-3.3,1.5-3.3,3.3s1.5,3.3,3.3,3.3S36.3,34.8,36.3,33z M33,38c2.8,0,5-2.2,5-5	s-2.2-5-5-5s-5,2.2-5,5S30.2,38,33,38z" class="st0"/><path d="M6,5.2C6,3.4,7.5,2,9.3,2h21.3C32.5,2,34,3.4,34,5.2v10.3c0,1.8-1.5,3.2-3.3,3.2h-4.4l-3.7,4.2	c-1.3,1.5-3.7,1.5-5,0l-3.7-4.2H9.3c-1.8,0-3.3-1.4-3.3-3.2V5.2z" class="st2"/><path d="M13,10.5C13,9.7,13.7,9,14.6,9h10.8c0.9,0,1.6,0.7,1.6,1.5c0,0.8-0.7,1.5-1.6,1.5H14.6C13.7,12,13,11.3,13,10.5	z" class="st0"/></svg>