<svg xmlns="http://www.w3.org/2000/svg" xmlns:xlink="http://www.w3.org/1999/xlink" width="50" height="50" x="0" y="0" version="1.1" viewBox="0 0 40 40" xml:space="preserve" style="enable-background:new 0 0 40 40"><style type="text/css">.st0{fill:#b793ee}.st1{fill:#7952b3}</style><path d="M9.3,8.4c0-1,0.9-1.8,2.1-1.8h21.9c1.1,0,2.1,0.8,2.1,1.8V37c0,1-0.9,1.8-2.1,1.8H11.4c-1.1,0-2.1-0.8-2.1-1.8	V8.4z" class="st0"/><path d="M4,3.1c0-1,0.9-1.8,2.1-1.8h21.9c1.1,0,2.1,0.8,2.1,1.8v28.5c0,1-0.9,1.8-2.1,1.8H6.1c-1.1,0-2.1-0.8-2.1-1.8	V3.1z" class="st1"/><path d="M7.4,5.5c0-0.7,0.6-1.2,1.4-1.2h16.4c0.8,0,1.4,0.5,1.4,1.2v15.4c0,0.7-0.6,1.2-1.4,1.2H8.8	c-0.8,0-1.4-0.5-1.4-1.2V5.5z" class="st0"/><path d="M7.4,27.2c0-1.1,1.1-2.1,2.4-2.1h6.8c1.3,0,2.4,0.9,2.4,2.1c0,1.1-1.1,2.1-2.4,2.1H9.8	C8.5,29.3,7.4,28.3,7.4,27.2z" class="st0"/></svg>