<svg xmlns="http://www.w3.org/2000/svg" xmlns:xlink="http://www.w3.org/1999/xlink" width="50" height="50" x="0" y="0" version="1.1" viewBox="0 0 40 40" xml:space="preserve" style="enable-background:new 0 0 40 40"><style type="text/css">.st0{fill:#b793ee}.st1{fill:#7952b3}</style><path d="M25.3,8.4c0,3.5-2.9,6.4-6.4,6.4l0,0c-3.5,0-6.4-2.9-6.4-6.4l0,0C12.6,4.9,15.4,2,19,2l0,0	C22.5,2,25.3,4.9,25.3,8.4L25.3,8.4z" class="st0"/><path d="M10.7,21.9c0-4.6,3.7-8.3,8.3-8.3l0,0c4.6,0,8.3,3.7,8.3,8.3v0.6c0,1-0.8,1.8-1.8,1.8H12.4	c-1,0-1.8-0.8-1.8-1.8V21.9z" class="st1"/><path d="M17.3,22.1c0,3.5-2.9,6.4-6.4,6.4l0,0c-3.5,0-6.4-2.9-6.4-6.4l0,0c0-3.5,2.9-6.4,6.4-6.4l0,0	C14.5,15.7,17.3,18.6,17.3,22.1L17.3,22.1z" class="st0"/><path d="M2.7,35.7c0-4.6,3.7-8.3,8.3-8.3l0,0c4.6,0,8.3,3.7,8.3,8.3v0.6c0,1-0.8,1.8-1.8,1.8H4.4c-1,0-1.8-0.8-1.8-1.8	V35.7z" class="st1"/><path d="M35.3,22.1c0,3.5-2.9,6.4-6.4,6.4l0,0c-3.5,0-6.4-2.9-6.4-6.4l0,0c0-3.5,2.9-6.4,6.4-6.4l0,0	C32.5,15.7,35.3,18.6,35.3,22.1L35.3,22.1z" class="st0"/><path d="M20.7,35.7c0-4.6,3.7-8.3,8.3-8.3l0,0c4.6,0,8.3,3.7,8.3,8.3v0.6c0,1-0.8,1.8-1.8,1.8H22.4	c-1,0-1.8-0.8-1.8-1.8V35.7z" class="st1"/></svg>