<svg xmlns="http://www.w3.org/2000/svg" xmlns:xlink="http://www.w3.org/1999/xlink" width="50" height="50" x="0" y="0" version="1.1" viewBox="0 0 40 40" xml:space="preserve" style="enable-background:new 0 0 40 40"><style type="text/css">.st0{fill:#b793ee}.st1{fill:#7952b3}</style><path d="M33.8,2H5.2C3.5,2,2,3.5,2,5.3v18.4C2,25.5,3.5,27,5.2,27h28.5c1.8,0,3.2-1.5,3.2-3.3V5.3C37,3.5,35.5,2,33.8,2	z" class="st0"/><path d="M9,7c0,1.1-0.9,2-2,2S5,8.1,5,7s0.9-2,2-2S9,5.9,9,7z" class="st1"/><path d="M14,7c0,1.1-0.9,2-2,2s-2-0.9-2-2s0.9-2,2-2S14,5.9,14,7z" class="st1"/><path d="M26.5,21c0,4.1-3.3,7.4-7.4,7.4l0,0c-4.1,0-7.4-3.3-7.4-7.4l0,0c0-4.1,3.3-7.4,7.4-7.4l0,0	C23.2,13.6,26.5,16.9,26.5,21L26.5,21z" class="st1"/><path d="M8,36.9c0-5.7,4.6-10.3,10.3-10.3h1.8c5.7,0,10.3,4.6,10.3,10.3l0,0c0,1.1-0.9,2.1-2.1,2.1H10.1	C8.9,39,8,38.1,8,36.9L8,36.9z" class="st1"/></svg>