<svg xmlns="http://www.w3.org/2000/svg" xmlns:xlink="http://www.w3.org/1999/xlink" width="50" height="50" x="0" y="0" version="1.1" viewBox="0 0 40 40" xml:space="preserve" style="enable-background:new 0 0 40 40"><style type="text/css">.st0{fill:#b793ee}.st1{fill:#7952b3}</style><path d="M9.9,22.6c0.4-0.8,1.6-0.8,2,0l7.1,13.1c0.4,0.8-0.1,1.7-1,1.7H3.8c-0.9,0-1.4-0.9-1-1.7L9.9,22.6z" class="st0"/><path d="M3.4,4.9c0-1.2,1-2.3,2.3-2.3h10.6c1.2,0,2.3,1,2.3,2.3v10.6c0,1.2-1,2.3-2.3,2.3H5.7c-1.2,0-2.3-1-2.3-2.3V4.9	z" class="st1"/><path d="M22.2,24.5c0-1.2,1-2.3,2.3-2.3h10.6c1.2,0,2.3,1,2.3,2.3v10.6c0,1.2-1,2.3-2.3,2.3H24.5c-1.2,0-2.3-1-2.3-2.3	V24.5z" class="st1"/><path d="M37.3,10.2c0,4.2-3.4,7.5-7.5,7.5c-4.2,0-7.5-3.4-7.5-7.5c0-4.2,3.4-7.5,7.5-7.5C33.9,2.7,37.3,6,37.3,10.2z" class="st0"/></svg>