<svg width="48" height="48" version="1.1" xmlns="http://www.w3.org/2000/svg" x="0px" y="0px" viewBox="0 0 150 150">
<g id="BACKGROUND">
</g>
<g id="OBJECTS">
	<g>
		<path fill="#1C2B46" d="M137.3,40.7c0-15.6-12.5-28-28-28c-10,0-18.7,5-23.7,13.7c-6.9-1.2-13.7-1.2-20.6,0c-1.2-2.5-3.1-4.4-5.6-6.2
			C47.5,9.6,29.5,10.8,19.5,22c-10,11.8-8.7,29.9,2.5,39.9c-2.5,6.2-3.1,12.5-3.1,19.3c0,31.2,24.9,56.1,56.1,56.1
			S131,112.4,131,81.2c0-6.9-1.2-13.1-3.1-19.3C133.5,56.3,137.3,48.8,137.3,40.7z M49.4,66.6c0-4.7,3.8-8.5,8.5-8.5
			s8.5,3.8,8.5,8.5s-3.8,8.5-8.5,8.5S49.4,71.3,49.4,66.6z M75,106.4c-12.5,0-22.7-10.2-22.7-22.7h11.4C63.6,89.9,68.7,95,75,95
			s11.4-5.1,11.4-11.4h11.4C97.7,96.2,87.4,106.4,75,106.4z M92.6,75.2c-4.7,0-8.5-3.8-8.5-8.5s3.8-8.5,8.5-8.5s8.5,3.8,8.5,8.5
			S97.3,75.2,92.6,75.2z"/>
		<path fill="#1C2B46" d="M121.1,30.2c-3.1-3.7-7.5-5.6-11.8-5.6c-5,0-9.3,2.5-12.5,6.9l-0.6,0.6l-4.4,7.5l-8.7-1.9
			c-5-0.6-9.3-0.6-14.3,0h-1.9l-8.7,1.9l-4.4-7.5c-4.4-7.5-13.7-10-21.2-5c-7.5,4.4-10,13.7-5,21.2c0.6,1.2,1.2,1.9,1.9,3.1l1.2,0.6
			l6.2,5.6l-3.1,8.1c-8.1,22.4,3.7,48,26.2,56.1c22.4,8.1,48-3.7,56.1-26.2c1.9-5,2.5-10,2.5-15c0-4.4-0.6-8.7-1.9-13.1l-0.6-1.9
			l-3.1-8.1l6.2-5.6C126.1,46.5,126.7,36.5,121.1,30.2z M49.4,66.1c0-4.7,3.8-8.5,8.5-8.5s8.5,3.8,8.5,8.5s-3.8,8.5-8.5,8.5
			S49.4,70.8,49.4,66.1z M75,105.9c-12.5,0-22.7-10.2-22.7-22.7h11.4c0,6.2,5.1,11.4,11.4,11.4s11.4-5.1,11.4-11.4h11.4
			C97.7,95.7,87.4,105.9,75,105.9z M92.6,74.7c-4.7,0-8.5-3.8-8.5-8.5s3.8-8.5,8.5-8.5s8.5,3.8,8.5,8.5S97.3,74.7,92.6,74.7z"/>
	</g>
</g>
</svg>
