<?xml version="1.0" encoding="utf-8"?>
<!-- Generator: Adobe Illustrator 21.0.0, SVG Export Plug-In . SVG Version: 6.00 Build 0)  -->
<svg version="1.1" xmlns="http://www.w3.org/2000/svg" xmlns:xlink="http://www.w3.org/1999/xlink" x="0px" y="0px"
	 viewBox="0 0 150 150" style="enable-background:new 0 0 150 150;" xml:space="preserve">
<style type="text/css">
	.st0{fill:#1C2B46;}
</style>
<g id="BACKGROUND">
</g>
<g id="OBJECTS">
	<g>
		<path class="st0" d="M40.9,13.2c3.6,0,7.2,0.7,10.6,2.1c3.4,1.4,6.4,3.4,9,6c2.6,2.6,4.6,5.6,6,9c1.4,3.4,2.1,6.9,2.1,10.6v27.6
			H40.9c-7.3,0-14.4-2.9-19.5-8.1s-8.1-12.2-8.1-19.5s2.9-14.4,8.1-19.5S33.5,13.2,40.9,13.2L40.9,13.2z"/>
		<path class="st0" d="M40.9,81.5h27.6v27.6c0,5.5-1.6,10.8-4.7,15.4c-3,4.5-7.4,8.1-12.4,10.2c-5.1,2.1-10.6,2.6-16,1.6
			c-5.4-1.1-10.3-3.7-14.2-7.6c-3.9-3.9-6.5-8.8-7.6-14.2c-1.1-5.4-0.5-10.9,1.6-16c2.1-5.1,5.6-9.4,10.2-12.4
			C30,83.1,35.4,81.5,40.9,81.5L40.9,81.5z"/>
		<path class="st0" d="M109.1,13.2c7.3,0,14.4,2.9,19.5,8.1c5.2,5.2,8.1,12.2,8.1,19.5s-2.9,14.4-8.1,19.5
			c-5.2,5.2-12.2,8.1-19.5,8.1H81.5V40.9c0-7.3,2.9-14.4,8.1-19.5C94.8,16.1,101.8,13.2,109.1,13.2L109.1,13.2z"/>
		<path class="st0" d="M81.5,81.5h27.6c5.5,0,10.8,1.6,15.4,4.7c4.5,3,8.1,7.4,10.2,12.4c2.1,5.1,2.6,10.6,1.6,16
			c-1.1,5.4-3.7,10.3-7.6,14.2c-3.9,3.9-8.8,6.5-14.2,7.6c-5.4,1.1-10.9,0.5-16-1.6c-5.1-2.1-9.4-5.6-12.4-10.2
			c-3-4.5-4.7-9.9-4.7-15.4V81.5z"/>
	</g>
</g>
</svg>
