<?xml version="1.0" encoding="utf-8"?>
<!-- Generator: Adobe Illustrator 21.0.0, SVG Export Plug-In . SVG Version: 6.00 Build 0)  -->
<svg version="1.1" xmlns="http://www.w3.org/2000/svg" xmlns:xlink="http://www.w3.org/1999/xlink" x="0px" y="0px"
	 viewBox="0 0 150 150" style="enable-background:new 0 0 150 150;" xml:space="preserve">
<style type="text/css">
	.st0{fill:#1C2B46;}
</style>
<g id="BACKGROUND">
</g>
<g id="OBJECTS">
	<g>
		<path class="st0" d="M126.4,126.7c-9,0-18-3.2-25.7-8.4c-15.4,10.9-36,10.9-51.4,0c-7.7,5.1-16.7,8.4-25.7,8.4H10.7v12.9h12.9
			c9,0,17.3-2.6,25.7-6.4c16.1,8.4,35.3,8.4,51.4,0c8.4,3.9,16.7,6.4,25.7,6.4h12.9v-12.9H126.4z"/>
		<path class="st0" d="M131.5,120.3h-5.1c-7.7,0-15.4-2.6-21.8-7.1l-3.9-2.6l-3.9,2.6c-6.4,4.5-14.1,7.1-21.8,7.1
			s-15.4-2.6-21.8-7.1l-3.9-2.6l-3.9,2.6c-6.4,4.5-14.1,7.1-21.8,7.1h-5.1c3.2-9.6,15.4-25.7,56.5-25.7c12.9,0,19.3,1.3,19.3,1.3
			c4.5-9,11.6-28.9,6.4-54l7.1,4.5c1.9,9,5.8,27-1.9,52C122.5,104.2,129,113.9,131.5,120.3z"/>
		<path class="st0" d="M139.3,47c-5.1-7.1-12.9-12.2-21.8-13.5c0.6,0.6,1.3,1.9,1.9,3.2c7.7,12.2,6.4,27.6-3.2,37.9
			c3.9-9,3.2-20.6-2.6-29.6c0,0,0-0.6-0.6-1.3c-2.6-3.9-5.8-7.1-9.6-9c-12.9,4.5-22.5,16.7-22.5,30.8c0,3.2,0.6,6.4,1.3,9.6
			c-3.9-5.1-5.8-11.6-5.8-18.6c0-10.9,5.1-19.9,12.9-25.7c-6.4-0.6-13.5,0.6-19.9,5.1c-2.6,1.9-5.1,3.9-7.1,6.4
			C64.7,36.8,69.2,31,75,27.1c6.4-4.5,14.1-5.8,21.8-4.5c-1.9-2.6-3.9-5.1-7.1-7.1c-2.6-2.6-5.1-4.5-8.4-5.1
			c6.4,0,12.9,2.6,18.6,6.4c2.6,1.9,5.1,4.5,7.1,7.7c0.6,0,0.6,0,1.3,0C123.2,23.9,135.4,33.6,139.3,47z"/>
	</g>
</g>
</svg>
