<svg width="48" height="48" version="1.1" xmlns="http://www.w3.org/2000/svg" x="0px" y="0px" viewBox="0 0 150 150">
<g id="BACKGROUND">
</g>
<g id="OBJECTS">
	<g>
		<g>
			<path fill="#1C2B46" d="M90.2,16.8h9.2c6.7,0,12.3,5.5,12.3,12.3v39.2L90.2,16.8z"/>
		</g>
		<g>
			<path fill="#1C2B46" d="M123.3,26.6l8,3.7c6.1,2.5,9.2,9.8,6.7,15.9l-14.7,36.2V26.6"/>
		</g>
		<path fill="#1C2B46" d="M71.8,29.8c-0.6-1.5-1.9-2.7-3.4-3.4C67.7,26.1,66.8,26,66,26c-0.8,0-1.6,0.2-2.4,0.5L25.1,42.6
			c-3.2,1.3-4.7,5-3.4,8.2l29.2,70c0.6,1.5,1.9,2.7,3.4,3.4c1.6,0.6,3.3,0.6,4.8,0L97.6,108c3.2-1.3,4.7-5,3.4-8.2L71.8,29.8z
			 M70,95.2L50.4,79.9l2.5-24.5L73,70.1L70,95.2z"/>
		<path fill="#1C2B46" d="M110.4,98.3L79.8,24.7c-1.8-4.9-6.1-7.4-11-7.4c-1.8,0-3.1,0.6-4.9,1.2L18.5,37c-6.1,2.5-9.2,9.2-6.1,15.3
			L43,125.9c1.8,4.9,6.1,7.4,11,7.4c1.8,0,3.1,0,4.9-1.2l45.4-18.4c4.9-1.8,7.4-6.1,7.4-11C111,101.4,111,99.5,110.4,98.3z
			 M97.9,108.7l-38.5,16.1c-0.9,0.4-1.8,0.5-2.7,0.5c-0.9,0-1.8-0.2-2.7-0.5c-1.7-0.7-3.1-2.1-3.8-3.8l-29.2-70
			c-1.5-3.6,0.2-7.7,3.8-9.2l38.5-16.1c1.7-0.7,3.6-0.7,5.4,0c1.7,0.7,3.1,2.1,3.8,3.8l29.2,70C103.2,103.1,101.5,107.2,97.9,108.7z
			"/>
		<g>
			<path fill="#FFFFFF" d="M56.7,125.4c-0.9,0-1.8-0.2-2.7-0.5c-1.7-0.7-3.1-2.1-3.8-3.8l-29.2-70c-1.5-3.6,0.2-7.7,3.8-9.2l38.5-16.1
				c1.7-0.7,3.6-0.7,5.4,0c1.7,0.7,3.1,2.1,3.8,3.8l29.2,70c1.5,3.6-0.2,7.7-3.8,9.2l-38.5,16.1C58.5,125.2,57.6,125.4,56.7,125.4z
				 M50.9,120.8c0.6,1.5,1.9,2.7,3.4,3.4c1.5,0.6,3.3,0.6,4.8,0L97.6,108c3.2-1.3,4.7-5,3.4-8.2l-29.2-70c-0.6-1.5-1.9-2.7-3.4-3.4
				c-1.5-0.6-3.3-0.6-4.8,0L25.1,42.6c-3.2,1.3-4.7,5-3.4,8.2L50.9,120.8z"/>
		</g>
	</g>
</g>
</svg>
