<svg xmlns="http://www.w3.org/2000/svg" data-name="Layer 1" width="155" height="155" viewBox="0 0 700.84998 673.49605"><path d="M544.25922,253.69377H541.012V164.7375A51.48546,51.48546,0,0,0,489.52659,113.252h-188.466A51.48546,51.48546,0,0,0,249.575,164.73734V652.75855a51.48548,51.48548,0,0,0,51.48542,51.48552H489.52634A51.48548,51.48548,0,0,0,541.012,652.75875V317.01438h3.24726Z" transform="translate(-249.57501 -113.25198)" fill="#3f3d56"/><path d="M491.60385,126.64672h-24.601a18.267,18.267,0,0,1-16.91268,25.16586H342.1204a18.26691,18.26691,0,0,1-16.91268-25.16589H302.23028a38.44878,38.44878,0,0,0-38.44881,38.44873V652.40055a38.44878,38.44878,0,0,0,38.44876,38.44881H491.60385a38.44878,38.44878,0,0,0,38.44881-38.44876h0V165.09546A38.44875,38.44875,0,0,0,491.60385,126.64672Z" transform="translate(-249.57501 -113.25198)" fill="#fff"/><path d="M484.34365,331.21579H309.49048a4.41288,4.41288,0,0,1-4.40806-4.40806V223.95292a4.41288,4.41288,0,0,1,4.40806-4.40806H484.34365a4.41288,4.41288,0,0,1,4.40806,4.40806V326.80773A4.41288,4.41288,0,0,1,484.34365,331.21579Z" transform="translate(-249.57501 -113.25198)" fill="#fff"/><path d="M425.95152,274.45658a9.726,9.726,0,0,0-13.97393-.24976l-49.2083,49.20866a6.94842,6.94842,0,0,1-9.80048.01471l-7.28794-7.27332a9.7025,9.7025,0,0,0-13.72426,0l-14.10523,14.12047H475.98275v-2.013Z" transform="translate(-249.57501 -113.25198)" fill="#7952b3"/><path d="M484.34352,332.71584h-174.853a5.91484,5.91484,0,0,1-5.90808-5.9082V223.95315a5.91484,5.91484,0,0,1,5.90808-5.9082h174.853a5.91487,5.91487,0,0,1,5.9082,5.9082V326.80764A5.91487,5.91487,0,0,1,484.34352,332.71584ZM309.49049,221.045a2.91148,2.91148,0,0,0-2.90808,2.9082V326.80764a2.91148,2.91148,0,0,0,2.90808,2.9082h174.853a2.91159,2.91159,0,0,0,2.9082-2.9082V223.95315a2.91159,2.91159,0,0,0-2.9082-2.9082Z" transform="translate(-249.57501 -113.25198)" fill="#cbcbcb"/><path d="M473.5796,646.10237a21.752,21.752,0,1,1,21.752-21.752A21.77663,21.77663,0,0,1,473.5796,646.10237Zm0-41.83071a20.07874,20.07874,0,1,0,20.07874,20.07874A20.10162,20.10162,0,0,0,473.5796,604.27166Z" transform="translate(-249.57501 -113.25198)" fill="#cbcbcb"/><path d="M464.18439,631.6739a.69581.69581,0,0,1-.34855-1.29838l10.436-6.02515-10.436-6.02515a.69584.69584,0,0,1,.69573-1.2053l11.47959,6.6278a.696.696,0,0,1,0,1.2053l-11.47959,6.6278A.69273.69273,0,0,1,464.18439,631.6739Z" transform="translate(-249.57501 -113.25198)" fill="#cbcbcb"/><path d="M479.57678,634.09065a.69576.69576,0,0,1-.69573-.69573v-18.089a.69574.69574,0,0,1,1.39147,0v18.089A.69577.69577,0,0,1,479.57678,634.09065Z" transform="translate(-249.57501 -113.25198)" fill="#cbcbcb"/><path id="e3ce330b-7810-427f-abc7-876c0b1e229e" data-name="Path 680" d="M352.27057,375.02334a3.268,3.268,0,1,0,0,6.536h89.293a3.268,3.268,0,0,0,0-6.536Z" transform="translate(-249.57501 -113.25198)" fill="#ccc"/><path id="a0eaab81-8858-470f-850b-5b5bdea12a20" data-name="Path 680" d="M301.77057,420.02334a3.268,3.268,0,1,0,0,6.536h190.293a3.268,3.268,0,0,0,0-6.536Z" transform="translate(-249.57501 -113.25198)" fill="#ccc"/><path id="ee8cc921-a5a0-4964-a61a-9ba4926e4da3" data-name="Path 680" d="M301.77057,446.02334a3.268,3.268,0,1,0,0,6.536h190.293a3.268,3.268,0,0,0,0-6.536Z" transform="translate(-249.57501 -113.25198)" fill="#ccc"/><path id="a10d2789-177b-4a06-b4a9-e144bb78656d" data-name="Path 680" d="M301.77057,472.02334a3.268,3.268,0,1,0,0,6.536h190.293a3.268,3.268,0,0,0,0-6.536Z" transform="translate(-249.57501 -113.25198)" fill="#ccc"/><path id="abaf8d8e-542f-4c38-bb70-bc98f5a2b3ae" data-name="Path 680" d="M301.77057,498.02334a3.268,3.268,0,1,0,0,6.536h190.293a3.268,3.268,0,0,0,0-6.536Z" transform="translate(-249.57501 -113.25198)" fill="#ccc"/><path id="bb510fc4-24f2-4f73-aad4-433372c1ffce" data-name="Path 680" d="M301.77057,524.02334a3.268,3.268,0,1,0,0,6.536h190.293a3.268,3.268,0,0,0,0-6.536Z" transform="translate(-249.57501 -113.25198)" fill="#ccc"/><path id="bc4545ef-9617-49fd-a774-25690e5815c1" data-name="Path 680" d="M301.77057,550.02334a3.268,3.268,0,1,0,0,6.536h190.293a3.268,3.268,0,0,0,0-6.536Z" transform="translate(-249.57501 -113.25198)" fill="#ccc"/></svg>