<svg xmlns="http://www.w3.org/2000/svg" width="31" height="30" fill="none" viewBox="0 0 31 30"><path fill="#2BCDE4" d="M0.600098 2.40005C0.600098 1.24025 1.5403 0.300049 2.7001 0.300049H28.6818C29.8416 0.300049 30.7818 1.24025 30.7818 2.40005V27.2209C30.7818 28.3807 29.8416 29.3209 28.6818 29.3209H2.7001C1.5403 29.3209 0.600098 28.3807 0.600098 27.2209V2.40005Z"/><path fill="#1868B7" d="M26.1385 9.00653C26.1385 11.2504 24.3195 13.0695 22.0756 13.0695C19.8317 13.0695 18.0127 11.2504 18.0127 9.00653C18.0127 6.76264 19.8317 4.9436 22.0756 4.9436C24.3195 4.9436 26.1385 6.76264 26.1385 9.00653Z"/><path fill="#1868B7" fill-rule="evenodd" d="M30.7818 25.4443V27.9201C30.7818 28.6933 30.155 29.3201 29.3818 29.3201H2.0001C1.2269 29.3201 0.600098 28.6933 0.600098 27.9201V26.2801L8.43508 12.1025C9.31834 10.5042 11.6159 10.5042 12.4991 12.1025L19.5301 24.8253L22.9667 18.873C23.8603 17.3253 26.0943 17.3253 26.9879 18.873L30.7818 25.4443Z" clip-rule="evenodd"/></svg>