<svg width="41" height="40" viewBox="0 0 41 40" fill="none" xmlns="http://www.w3.org/2000/svg">
<path fill-rule="evenodd" clip-rule="evenodd" d="M9.82263 10C9.82263 9.72386 10.0465 9.5 10.3226 9.5H18.4033C18.5359 9.5 18.6631 9.55268 18.7568 9.64645L29.8478 20.7374C30.043 20.9326 30.043 21.2492 29.8478 21.4445L21.7671 29.5251C21.5718 29.7204 21.2552 29.7204 21.06 29.5251L9.96908 18.4342C9.87531 18.3404 9.82263 18.2133 9.82263 18.0807V10ZM10.3226 6.5C8.38964 6.5 6.82263 8.067 6.82263 10V18.0807C6.82263 19.0089 7.19138 19.8992 7.84776 20.5555L18.9387 31.6464C20.3055 33.0133 22.5216 33.0133 23.8884 31.6464L31.9691 23.5658C33.3359 22.1989 33.3359 19.9829 31.9691 18.616L20.8782 7.52512C20.2218 6.86875 19.3316 6.5 18.4033 6.5H10.3226ZM14.8226 16C15.6511 16 16.3226 15.3284 16.3226 14.5C16.3226 13.6716 15.6511 13 14.8226 13C13.9942 13 13.3226 13.6716 13.3226 14.5C13.3226 15.3284 13.9942 16 14.8226 16Z" fill="black"/>
</svg>
