<svg width="48" height="48" viewBox="0 0 48 48" fill="none" xmlns="http://www.w3.org/2000/svg">
    <path opacity="0.3" d="M29.4 4.40002H32.4C34.6 4.40002 36.4 6.20002 36.4 8.40002V21.2L29.4 4.40002Z" fill="#1c2b46"></path>
    <path opacity="0.3" d="M40.2 7.59998L42.8 8.79998C44.8 9.59998 45.8 12 45 14L40.2 25.8V7.59998" fill="#1c2b46"></path>
    <path d="M36 31L26 6.99998C25.4 5.39998 24 4.59998 22.4 4.59998C21.8 4.59998 21.4 4.79998 20.8 4.99998L6 11C4 11.8 3 14 4 16L14 40C14.6 41.6 16 42.4 17.6 42.4C18.2 42.4 18.6 42.4 19.2 42L34 36C35.6 35.4 36.4 34 36.4 32.4C36.2 32 36.2 31.4 36 31ZM17.6 38.6L7.6 14.6L22.4 8.39998L32.4 32.4L17.6 38.6Z" fill="#1c2b46"></path>
    <path d="M17.2 17L23.8 21.8L22.8 30L16.4 25L17.2 17Z" fill="#1c2b46"></path>
</svg>