<svg width="48" height="48" viewBox="0 0 48 48" fill="none" xmlns="http://www.w3.org/2000/svg">
    <path d="M40 40.2C37.2 40.2 34.4 39.2 32 37.6C27.2 41 20.8 41 16 37.6C13.6 39.2 10.8 40.2 8 40.2H4V44.2H8C10.8 44.2 13.4 43.4 16 42.2C21 44.8 27 44.8 32 42.2C34.6 43.4 37.2 44.2 40 44.2H44V40.2H40ZM41.6 38.2H40C37.6 38.2 35.2 37.4 33.2 36L32 35.2L30.8 36C28.8 37.4 26.4 38.2 24 38.2C21.6 38.2 19.2 37.4 17.2 36L16 35.2L14.8 36C12.8 37.4 10.4 38.2 8 38.2H6.4C7.4 35.2 11.2 30.2 24 30.2C28 30.2 30 30.6 30 30.6C31.4 27.8 33.6 21.6 32 13.8L34.2 15.2C34.8 18 36 23.6 33.6 31.4C38.8 33.2 40.8 36.2 41.6 38.2ZM44 15.4C42.4 13.2 40 11.6 37.2 11.2C37.4 11.4 37.6 11.8 37.8 12.2C40.2 16 39.8 20.8 36.8 24C38 21.2 37.8 17.6 36 14.8C36 14.8 36 14.6 35.8 14.4C35 13.2 34 12.2 32.8 11.6C28.8 13 25.8 16.8 25.8 21.2C25.8 22.2 26 23.2 26.2 24.2C25 22.6 24.4 20.6 24.4 18.4C24.4 15 26 12.2 28.4 10.4C26.4 10.2 24.2 10.6 22.2 12C21.4 12.6 20.6 13.2 20 14C20.8 12.2 22.2 10.4 24 9.2C26 7.8 28.4 7.4 30.8 7.8C30.2 7 29.6 6.2 28.6 5.6C27.8 4.8 27 4.2 26 4C28 4 30 4.8 31.8 6C32.6 6.6 33.4 7.4 34 8.4C34.2 8.4 34.2 8.4 34.4 8.4C39 8.2 42.8 11.2 44 15.4Z" fill="#1c2b46"></path>
</svg>